<svg xmlns="http://www.w3.org/2000/svg" xmlns:xlink="http://www.w3.org/1999/xlink" viewBox="0 0 400 300" width="406" height="306" class="illustration styles_illustrationTablet__1DWOa"><defs><linearGradient id="linear-gradient" x1="322.52" y1="193.95" x2="344.01" y2="177.07" gradientUnits="userSpaceOnUse"><stop offset="0" stop-opacity="0"></stop><stop offset="1" stop-color="#f15a24"></stop></linearGradient></defs><title>PP</title><g style="isolation: isolate;"><g id="Layer_2" data-name="Layer 2"><path d="M197.46,275.53,25,173.58c-5.49-3.08-10.2-8.15-4.85-11.46L193.24,62.34c2.6-1.61,6.54-2.66,9.18-1.13L383.49,166.3c5.49,3.19,6.48,12.1,1,15.29L220.2,275.37A22.94,22.94,0,0,1,197.46,275.53Z" fill="#55823d"></path><ellipse cx="198.18" cy="165.07" rx="119.91" ry="66.36" fill="#68e1fd"></ellipse><ellipse cx="198.18" cy="165.07" rx="119.91" ry="66.36" fill="#093e3e" opacity="0.29"></ellipse><ellipse cx="198.18" cy="157.84" rx="119.91" ry="66.36" fill="#68e1fd"></ellipse><ellipse cx="198.18" cy="157.28" rx="83.35" ry="42.6" fill="#093e3e" opacity="0.29"></ellipse><polyline points="140.49 150.08 139.79 158.17 246.25 171.4 279.89 174.28 280.75 164.22" fill="#f6b034"></polyline><path d="M141.62,161.21l41,29.11s.23,18.55,24.56,20.64c37.23,3.2,76.84-28.49,72.48-39.76-5.32-13.77-24.1-13.32-24.1-13.32l-44-31.44a6.8,6.8,0,0,0-6.75-.66l-62.43,28.14A4.22,4.22,0,0,0,141.62,161.21Z" fill="#e59c28"></path><path d="M142.35,152.64l41,29.11s.23,18.55,24.56,20.64c37.23,3.2,76.84-28.49,72.48-39.76-5.32-13.77-24.1-13.32-24.1-13.32l-44-31.44a6.8,6.8,0,0,0-6.75-.66l-62.43,28.14A4.22,4.22,0,0,0,142.35,152.64Z" fill="#fbe8ae"></path><polyline points="129.52 149.93 129.52 158.05 236.72 162.15 270.48 162.15 270.48 152.04" fill="#f6b034"></polyline><path d="M131.6,160.93l43.32,25.51s1.81,18.47,26.23,18.47c37.37,0,74.12-34.95,68.82-45.81-6.47-13.26-25.15-11.21-25.15-11.21l-46.56-27.56a6.8,6.8,0,0,0-6.78-.09l-59.8,33.37A4.22,4.22,0,0,0,131.6,160.93Z" fill="#f6b034"></path><path d="M131.6,152.33l43.32,25.51s1.81,18.47,26.23,18.47c37.37,0,74.12-34.95,68.82-45.81-6.47-13.26-25.15-11.21-25.15-11.21l-46.56-27.56a6.8,6.8,0,0,0-6.78-.09L131.68,145A4.22,4.22,0,0,0,131.6,152.33Z" fill="#fbe8ae"></path><polyline points="124.78 140.29 124.78 148.41 231.97 152.5 265.74 152.5 265.74 142.4" fill="#f6b034"></polyline><path d="M126.86,151.29l43.32,25.51s1.81,18.47,26.23,18.47c37.37,0,74.12-34.95,68.82-45.81-6.47-13.26-25.15-11.21-25.15-11.21l-46.56-27.56a6.8,6.8,0,0,0-6.78-.09L126.94,144A4.22,4.22,0,0,0,126.86,151.29Z" fill="#f6b034"></path><path d="M126.86,142.68l43.32,25.51s1.81,18.47,26.23,18.47c37.37,0,74.12-34.95,68.82-45.81-6.47-13.26-25.15-11.21-25.15-11.21l-46.56-27.56a6.8,6.8,0,0,0-6.78-.09l-59.8,33.37A4.22,4.22,0,0,0,126.86,142.68Z" fill="#fbe8ae"></path><polyline points="124.78 127.88 124.78 136 231.97 140.09 265.74 140.09 265.74 129.99" fill="#f6b034"></polyline><path d="M126.86,138.88l43.32,25.51s1.81,18.47,26.23,18.47c37.37,0,74.12-34.95,68.82-45.81-6.47-13.26-25.15-11.21-25.15-11.21L193.52,98.27a6.8,6.8,0,0,0-6.78-.09l-59.8,33.37A4.22,4.22,0,0,0,126.86,138.88Z" fill="#f6b034"></path><path d="M126.86,130.27l43.32,25.51s1.81,18.47,26.23,18.47c37.37,0,74.12-34.95,68.82-45.81-6.47-13.26-25.15-11.21-25.15-11.21L193.52,89.67a6.8,6.8,0,0,0-6.78-.09l-59.8,33.37A4.22,4.22,0,0,0,126.86,130.27Z" fill="#fbe8ae"></path><path d="M195.26,110.08c-5.15,0-5.16,8,0,8S200.41,110.08,195.26,110.08Z" fill="#f4bf6c"></path><path d="M250.09,135.79c-5.15,0-5.16,8,0,8S255.24,135.79,250.09,135.79Z" fill="#f4bf6c"></path><path d="M206.41,155.61c-5.15,0-5.16,8,0,8S211.57,155.61,206.41,155.61Z" fill="#f4bf6c"></path><path d="M184.73,130.21c-5.15,0-5.16,8,0,8S189.88,130.21,184.73,130.21Z" fill="#f4bf6c"></path><path d="M156.54,122.47c-5.15,0-5.16,8,0,8S161.69,122.47,156.54,122.47Z" fill="#f4bf6c"></path><path d="M207.34,137.36a1.5,1.5,0,0,0,0,3A1.5,1.5,0,0,0,207.34,137.36Z" fill="#f4bf6c"></path><path d="M232.43,121.25a1.5,1.5,0,0,0,0,3A1.5,1.5,0,0,0,232.43,121.25Z" fill="#f4bf6c"></path><path d="M230.26,151.61a1.5,1.5,0,0,0,0,3A1.5,1.5,0,0,0,230.26,151.61Z" fill="#f4bf6c"></path><path d="M210.75,121.56a1.5,1.5,0,0,0,0,3A1.5,1.5,0,0,0,210.75,121.56Z" fill="#f4bf6c"></path><path d="M175.74,116.6a1.5,1.5,0,0,0,0,3A1.5,1.5,0,0,0,175.74,116.6Z" fill="#f4bf6c"></path><path d="M169.37,140.9l-.31-.31a1.5,1.5,0,0,0-2.12,2.12l.31.31a1.5,1.5,0,0,0,2.12-2.12Z" fill="#f4bf6c"></path><path d="M271.4,191.45c-.54-5.36-15.88-5.72-11.24-13s-2-8.91-6.42-8.38-13.38,14.81-19.44,10.35-8.25-27.28-4.22-30.5,10.78,5.38,14.74-.37,9.05-13.78,7.2-21.7-18.54-13.5-38.16-26.22c0,0-25.48-5.55-36.15-7a32.86,32.86,0,0,1-4.82,2.85c-4.42,2-5.95,3.43-9.35,5.09-6.68,3.25-14.26,8.32-21.35,11.91,2.51,3.31,4.61,6.24,1.82,7.44-6.24,2.68-10.89,9.2-10.14,13.28s-2.63,13.54,4.2,15.3,4.77-5.36,8.39-4.75-1.71,14.5,5.59,19.06S157.67,151,162.57,152s11,1.61,15.59,6.07,20.57-1.84,24.55-2.53,13.82-3.68,17,2.55,3,22.28,1.21,28.52-8.56,10.35-15.16,12.84-8.56,11.6,2,16.23S235,203,245.17,207.14,271.93,196.81,271.4,191.45Z" fill="#f68e2b" opacity="0.47" style="mix-blend-mode: multiply;"></path><path d="M324.74,201.32l28.9-16.6-20.13-8.48-25.18,13.63A145.55,145.55,0,0,0,324.74,201.32Z" fill="url(#linear-gradient)"></path><path d="M330.23,156.6s-2.9,24.92,10.28,29.74,20.24-7.72,20.44-29.74" fill="#68e1fd"></path><ellipse cx="345.6" cy="156.6" rx="15.36" ry="8.88" fill="#f2696a"></ellipse><path d="M349.53,136.85s-6-8.71-3.4-14.72c0,0,2.17-3.87,5.24-4.48,0,0-.31,8.25,2.77,7.2s0-8.64,0-8.64,3.23-4.37,6.76-4.23,0,7.72,2.46,6.46.15-7.71,2.92-8.48a58.06,58.06,0,0,1,7.68-1.23s2.61,7.53,0,8.6-6.45,1.44-4.61,3.1,7.07-.25,7.07-.25.33,4.24-1.45,6.07-12.22-2.22-10.38,1.42,8.76,1.82,8.76,1.82-3.53,5.05-7.68,7.35S349.53,136.85,349.53,136.85Z" fill="#8ccc00"></path><path d="M350.94,158.64s-4.35-4.3-3.5-8c0,0,.82-2.43,2.5-3.1,0,0,.71,4.72,2.34,3.79s-.92-4.9-.92-4.9,1.37-2.83,3.39-3.12.82,4.38,2.09,3.41-.74-4.39.75-5.12a33.54,33.54,0,0,1,4.23-1.52s2.29,4,.92,4.88-3.51,1.51-2.29,2.25,4-.89,4-.89.64,2.37-.18,3.6-7.18,0-5.74,1.91,5.17.1,5.17.1a16.35,16.35,0,0,1-3.58,5C358,158.67,350.94,158.64,350.94,158.64Z" fill="#8ccc00"></path><path d="M334.92,149.34s-10.58.41-14.24-5c0,0-2.1-3.91-1-6.83,0,0,6.8,4.69,7.56,1.54s-7.28-4.64-7.28-4.64-2-5.07.06-8,6.51,4.15,6.77,1.4-6.42-4.27-5.58-7a58.06,58.06,0,0,1,3.09-7.14s7.75,1.84,7.26,4.62-2.25,6.22.14,5.55,3.59-6.09,3.59-6.09,3.75,2,4.34,4.48-8.44,9.12-4.38,9.52,6.24-6.41,6.24-6.41,2.36,5.69,2.08,10.43S334.92,149.34,334.92,149.34Z" fill="#8ccc00"></path><path d="M371.66,112.07q-1.68,1.42-3.38,2.9c.12-1.2.26-2.39.45-3.58.1-.63-.86-.9-1-.27q-.38,2.39-.58,4.8c-3,2.6-5.91,5.32-8.65,8.21a35.69,35.69,0,0,1-.18-6.11c0-.64-1-.64-1,0a36.71,36.71,0,0,0,.3,7.06,69.17,69.17,0,0,0-4.92,5.94,19.81,19.81,0,0,1-3.43-8c-.12-.63-1.08-.36-1,.27a20.49,20.49,0,0,0,3.69,8.47.51.51,0,0,0,.1.09c-4.4,6.23-7.42,13.22-7.68,21.32,0,.64,1,.64,1,0,.25-7.8,3.14-14.56,7.36-20.59a38.56,38.56,0,0,0,12.39,1.21c.64,0,.64-1,0-1a37.78,37.78,0,0,1-11.77-1.09,72.53,72.53,0,0,1,7-8.09l.09,0c2.33.21,4.67.41,7,.5a8.55,8.55,0,0,0,4.35-.5c.58-.29.07-1.15-.5-.86-1.62.81-3.87.38-5.6.28-1.48-.09-3-.21-4.44-.34,3.57-3.53,7.38-6.81,11.07-9.94C372.86,112.36,372.15,111.66,371.66,112.07Z" fill="#06577a"></path><path d="M340.68,131.53a.5.5,0,0,0-1-.27,17.71,17.71,0,0,1-6.42,9.22q-1.7-4.72-3.11-9.53a29.87,29.87,0,0,0,5.87-8.28c.28-.58-.59-1.09-.86-.5a29.1,29.1,0,0,1-5.33,7.67c-1-3.68-2-7.39-2.74-11.15-.13-.63-1.09-.36-1,.27q1.59,7.7,3.94,15.2a23.45,23.45,0,0,1-5.46-1.78c-.58-.27-1.09.59-.5.86a24.53,24.53,0,0,0,6.31,2h0c1.05,3.29,2.24,6.54,3.5,9.76a24.18,24.18,0,0,1-8.7-1.92c-.59-.25-1.1.61-.5.86a25.51,25.51,0,0,0,9.59,2.07q2.41,6,5.3,11.83c.29.58,1.15.07.86-.5a156.06,156.06,0,0,1-6.85-15.87h0A18.81,18.81,0,0,0,340.68,131.53Z" fill="#06577a"></path><path d="M358.79,144.46,356,149.08a8.62,8.62,0,0,1-.87-1.44c-.28-.58-1.14-.07-.86.5a9.53,9.53,0,0,0,1.15,1.82l0,0-3,5a2,2,0,0,1-.61-1.2c-.08-.63-1.08-.64-1,0a3.15,3.15,0,0,0,1.1,2.06l-3.73,6.26a.5.5,0,0,0,.86.5l4.92-8.25a7.47,7.47,0,0,0,2.43-.37c.61-.2.35-1.17-.27-1a6.65,6.65,0,0,1-1.55.29l5-8.36A.5.5,0,0,0,358.79,144.46Z" fill="#06577a"></path><circle cx="191.01" cy="115.4" r="12.98" fill="#e94139"></circle><path d="M185.42,115.47c-1.14-4.76.05-10.18,3.69-13a13,13,0,1,0,11,22C193.46,125.92,187.2,122.92,185.42,115.47Z" fill="#c62020"></path><path d="M200.2,110.74a8.3,8.3,0,0,0-2.44-4.49c-1.39-1.34-3.52.78-2.12,2.12a5.61,5.61,0,0,1,1.67,3.17,1.51,1.51,0,0,0,1.85,1A1.53,1.53,0,0,0,200.2,110.74Z" fill="#fff"></path><path d="M199.27,114.14a1.5,1.5,0,0,0,0,3A1.5,1.5,0,0,0,199.27,114.14Z" fill="#fff"></path><ellipse cx="188.06" cy="107.06" rx="3.19" ry="1.62" fill="#c42a2a"></ellipse><path d="M188.49,108.68a28.47,28.47,0,0,1,2.92-14.81,1.56,1.56,0,0,0-2.77.35c-1.46,4.7-2.45,9.48-1.51,14.29A9.48,9.48,0,0,0,188.49,108.68Z" fill="#631919"></path><circle cx="204.84" cy="122.48" r="10.97" transform="translate(-33.38 107.86) rotate(-27.37)" fill="#e94139"></circle><path d="M202.62,118.32c3.13-2.7,7.66-3.92,11.17-2.27a11,11,0,1,0-12.27,16.84C197.9,128.41,197.72,122.54,202.62,118.32Z" fill="#c62020"></path><path d="M211.91,127.58a7,7,0,0,0,2.43-3.58,1.27,1.27,0,0,0-2.42-.77,4.74,4.74,0,0,1-1.73,2.48,1.28,1.28,0,0,0-.07,1.79A1.3,1.3,0,0,0,211.91,127.58Z" fill="#fff"></path><path d="M209,128.2a1.27,1.27,0,0,0-2.25,1.17A1.27,1.27,0,0,0,209,128.2Z" fill="#fff"></path><ellipse cx="209.96" cy="117.03" rx="1.37" ry="2.7" transform="translate(-30.3 109.61) rotate(-27.37)" fill="#c42a2a"></ellipse><path d="M208.91,118a24.06,24.06,0,0,1,12.26-3.57,1.32,1.32,0,0,0-1.34-1.94c-4.09.73-8.07,1.84-11.32,4.42A8,8,0,0,0,208.91,118Z" fill="#631919"></path></g></g></svg>